<?xml version="1.0" encoding="UTF-8" standalone="no"?>
<!-- Created with Inkscape (http://www.inkscape.org/) -->

<svg
   xmlns:dc="http://purl.org/dc/elements/1.1/"
   xmlns:cc="http://creativecommons.org/ns#"
   xmlns:rdf="http://www.w3.org/1999/02/22-rdf-syntax-ns#"
   xmlns:svg="http://www.w3.org/2000/svg"
   xmlns="http://www.w3.org/2000/svg"
   version="1.1"
   width="410.03989"
   height="222.80267"
   id="svg6014">
  <defs
     id="defs6016" />
  <metadata
     id="metadata6019">
    <rdf:RDF>
      <cc:Work
         rdf:about="">
        <dc:format>image/svg+xml</dc:format>
        <dc:type
           rdf:resource="http://purl.org/dc/dcmitype/StillImage" />
        <dc:title></dc:title>
      </cc:Work>
    </rdf:RDF>
  </metadata>
  <g
     transform="translate(-186.40862,-375.24656)"
     id="layer1">
    <path
       d="m 352.97823,396.69439 c -9.09126,1.12991 -18.19796,3.41973 -26.18078,8.03781 -7.11549,4.37499 -11.73401,12.14491 -13.12595,20.28886 -1.33711,7.35305 -0.43348,14.87248 0.7883,22.17562 1.99876,12.26873 4.95781,24.39121 9.07955,36.12379 5.66244,16.77187 11.67224,33.43472 16.72555,50.40526 1.22694,4.32403 2.52186,8.74144 2.25003,13.28743 -0.23634,6.81859 -2.76387,13.60734 -7.28079,18.74845 -3.83217,4.28405 -9.04384,7.16668 -14.53641,8.72709 -0.81738,0.25603 -2.12457,0.11763 -2.32178,1.23168 -0.21977,1.06853 1.11557,1.10116 1.79318,1.43907 2.08644,0.70144 4.26544,1.12833 6.43683,1.46295 4.16073,0.37911 8.27502,-0.88338 11.95861,-2.73401 5.86987,-2.81382 11.01947,-7.39925 13.89938,-13.29565 3.28713,-6.5961 4.12755,-14.20658 3.22737,-21.46608 -1.19408,-10.39275 -5.16259,-20.16902 -9.00915,-29.80887 -4.61018,-11.77448 -9.50075,-23.46199 -13.25005,-35.54966 -3.14339,-10.22711 -5.13425,-20.80293 -6.01483,-31.4633 -0.30942,-4.72319 -0.61607,-9.50588 0.10832,-14.20558 0.45821,-3.07798 1.61647,-6.09105 3.67905,-8.457 3.88269,-4.80861 9.66777,-7.60974 15.4723,-9.37774 9.25343,-2.80177 19.19631,-2.87874 28.6356,-0.98412 4.61859,0.97737 9.1822,2.37707 13.4202,4.47376 5.60921,2.90118 10.24527,7.61774 13.03399,13.28607 2.31379,4.657 3.4912,9.99932 2.78915,15.18554 -0.79423,4.80737 -4.09431,8.804 -7.90542,11.64944 -4.10003,3.09443 -9.45468,4.35666 -14.51244,3.51158 -5.84022,-0.75952 -11.36875,-3.4704 -17.33519,-3.28306 -2.27559,0.14486 -4.48651,0.61397 -6.61293,1.32671 -3.72246,1.42613 -7.55305,3.45341 -9.55992,7.05245 -1.5387,2.8578 -1.3918,6.34849 -0.22447,9.31351 1.03418,2.78223 2.84675,5.24876 5.18974,7.07755 1.25486,0.99428 2.70835,1.83496 4.29699,2.30575 2.77862,0.74998 5.79699,0.26383 8.30049,-0.87282 5.14849,-1.72656 10.14973,-3.87271 15.33906,-5.48274 4.726,-1.62937 9.44914,-3.22084 13.90361,-5.41648 3.67158,-1.68779 7.18953,-3.84186 9.96154,-6.82038 4.76988,-4.94672 8.05768,-11.52218 8.31855,-18.45778 0.43737,-6.13939 -0.10551,-12.32556 -1.28473,-18.35641 -0.92346,-3.96385 -2.738,-7.71743 -5.39187,-10.81358 -4.82198,-5.96978 -11.09541,-10.69633 -17.99541,-14.013 -4.57669,-2.20738 -9.4681,-3.69509 -14.45852,-4.61748 -7.10202,-1.42148 -14.38073,-1.72522 -21.60675,-1.63463 z"
       id="path4332-4-8-9-7-9"
       style="fill:#000000;fill-opacity:1" />
    <path
       d="m 515.3475,440.58694 c -26.85693,5.3408 -53.41386,12.8257 -79.07996,22.37522 -5.43722,0.58786 -5.60635,9.21862 -0.19917,9.94771 24.85188,-2.71296 49.16115,-9.78685 73.30137,-16.14794 4.81342,-1.81063 13.06143,-2.81835 12.63168,-9.60221 -0.0973,-3.52481 -2.99602,-6.81668 -6.65392,-6.57278 z"
       id="path3095-4-2-7-7-9"
       style="fill:#000000;fill-opacity:1" />
    <path
       d="m 473.42236,457.11356 c -6.04051,0.66757 -6.86148,7.60354 -7.24899,12.44229 -4.02793,25.43496 -0.60061,51.54502 5.51789,76.3308 2.44492,5.98221 4.43655,13.72375 10.63001,16.87825 5.28315,1.92325 10.25306,-4.63788 6.92441,-9.22353 -8.98053,-17.85218 -12.0799,-38.16866 -13.09147,-58.01898 -0.10196,-11.50258 4.04524,-22.84331 3.73269,-34.21632 -0.67547,-2.79733 -3.67244,-4.53436 -6.46454,-4.19251 z"
       id="path3085-9-5-3-9-5"
       style="fill:#000000;fill-opacity:1" />
    <path
       d="m 386.00169,494.81913 c -5.89925,2.58905 -5.22118,10.54774 -7.01123,15.77986 -2.44267,15.1274 -4.81783,30.56366 -3.88935,45.94476 0.63306,8.11549 5.80698,18.0451 15.20124,17.58151 16.2322,-0.61056 29.89528,-10.55877 44.65708,-16.12089 4.28162,-2.49642 10.6436,-4.06722 12.60459,-9.00714 0.98811,-4.18216 -3.90355,-7.15862 -7.41128,-5.05807 -15.58746,5.55825 -31.06524,11.99732 -47.17254,15.57992 -2.47063,0.54582 -5.69187,0.76636 -5.24741,-2.73194 -2.8043,-18.80887 2.81166,-37.457 4.86873,-56.04439 -0.28131,-3.28794 -3.20566,-6.27468 -6.59983,-5.92362 z"
       id="path3083-1-4-4-3-1"
       style="fill:#000000;fill-opacity:1" />
    <path
       d="m 539.06395,524.3056 c -4.72678,0.12172 -9.99548,2.99964 -11.02063,8.02836 -0.41054,3.67654 2.55848,6.63131 5.54437,8.11686 0.81379,1.28869 -1.08661,2.16212 -1.7781,2.98407 -4.70072,4.72047 -9.20834,9.89907 -11.94772,16.08237 -2.72874,6.32502 0.83153,14.67041 7.45551,16.55082 4.26725,1.60551 8.95897,0.27914 12.82115,-1.81662 4.7015,-2.07611 9.49458,-3.97245 14.13834,-6.16169 4.65935,-3.19977 6.18991,-9.22063 6.71045,-14.60781 0.32398,-4.00699 -1.00387,-8.49203 -4.60421,-10.59564 -4.25704,-2.79331 -9.53578,-2.60174 -14.36668,-3.02548 0.28632,-0.7191 1.47438,-1.08878 2.12683,-1.63201 3.76324,-2.46832 4.91157,-8.64703 1.39432,-11.83915 -1.72167,-1.63218 -4.15127,-2.35235 -6.47363,-2.08408 z"
       id="path3081-2-0-5-9-1"
       style="fill:#5c3566;fill-opacity:1" />
    <path
       d="m 517.87084,529.35468 c -6.50445,0.13815 -11.87467,5.64129 -13.55774,11.7697 -1.1137,3.08752 -0.79085,6.80528 1.63269,9.10983 1.05208,1.84521 3.23431,3.70842 5.40009,2.57315 4.69466,-1.45379 8.83477,-4.78488 11.35612,-9.04907 1.89183,-4.17576 1.14062,-9.28103 -1.20303,-13.10309 -0.92908,-0.96474 -2.31639,-1.43202 -3.62813,-1.30052 z"
       id="path3077-1-8-0-0-6"
       style="fill:#5c3566;fill-opacity:1" />
    <path
       d="m 557.46859,537.3153 c -4.56976,-1.16221 -6.21353,-2.70813 -6.721,-6.32103 -0.39807,-2.8342 0.282,-4.29698 2.98485,-6.42021 4.14019,-3.2522 9.45459,-3.55991 13.30664,-0.77044 1.84657,1.33711 2.109,1.78766 2.10918,3.62069 3.4e-4,2.93285 -0.91654,4.9905 -3.0174,6.77183 -1.85297,1.5712 -7.191,3.49334 -8.66227,3.11916 z"
       id="path3075-6-7-6-0-2"
       style="fill:#5c3566;fill-opacity:1" />
    <path
       d="m 424.41321,513.62494 c -11.69377,1.48789 -22.91357,5.62829 -33.31109,11.08879 -2.55086,1.31678 -5.10225,2.65058 -7.57089,4.11026 -2.13687,1.72467 -2.34417,5.06487 -0.94033,7.30895 0.94198,1.67596 3.0122,2.50765 4.88344,2.17126 3.66691,-0.26407 7.28534,-0.99573 10.86613,-1.80236 6.76341,-1.68912 13.42712,-3.81368 19.87868,-6.45847 3.71988,-1.63103 7.42323,-3.42608 10.66082,-5.90026 3.19311,-2.98108 1.64758,-9.1435 -2.50819,-10.37536 -0.63212,-0.19866 -1.30396,-0.19693 -1.95857,-0.14281 z"
       id="path3073-8-0-5-5-7"
       style="fill:#000000;fill-opacity:1" />
    <path
       d="m 432.20048,475.72291 c -16.33875,3.90761 -33.74801,6.36006 -48.68725,14.38979 -3.69287,3.41451 -0.48687,10.61966 4.73344,9.14238 16.50052,-3.34388 32.80577,-8.00425 48.30858,-14.38979 3.31783,-3.24383 0.40932,-9.85571 -4.35477,-9.14238 z"
       id="path3071-0-9-9-9-4"
       style="fill:#000000;fill-opacity:1" />
    <path
       d="m 266.77092,392.07007 c -0.71681,0.38877 -1.21925,1.10635 -1.74974,1.71867 -1.83894,2.37449 -3.49412,4.88469 -5.19707,7.35716 -1.13283,1.65107 -2.21881,3.3357 -3.38571,4.96233 -0.35381,0.66514 -0.78092,1.33575 -1.46061,1.70406 -0.70528,0.27168 -1.59322,-0.0984 -1.86635,-0.81146 -0.69006,-1.15054 -1.07614,-2.44851 -1.6496,-3.65673 -1.00993,-2.32443 -2.01986,-4.64888 -3.02979,-6.97332 -0.34291,-0.64798 -0.94202,-1.30393 -1.7311,-1.29832 -0.75775,0.003 -1.39714,0.60397 -1.7311,1.24423 -0.43452,0.83845 -0.73338,1.74897 -1.11894,2.61429 -1.28846,3.18483 -2.56067,6.37625 -3.85798,9.55752 -1.31577,1.99435 -3.34772,3.32599 -5.16626,4.81463 -0.79007,0.59564 -1.54353,1.24657 -2.35629,1.80794 -2.31381,0.67272 -2.07804,0.30376 -2.94521,1.08624 -1.02491,0.67365 -0.8242,2.95719 -1.13604,4.62529 -0.1676,1.52591 -0.84303,2.92239 -1.27127,4.38186 -1.56103,4.49956 -3.04246,9.02891 -4.78036,13.46468 -0.31563,0.79056 -0.51133,1.71064 -1.19736,2.27753 -0.412,0.53211 -0.87232,1.17672 -1.13603,1.56881 -0.1711,0.59026 -0.34961,1.03564 -0.32458,1.8393 -0.12687,2.23522 0.90542,2.13872 2.43436,2.75894 0.82315,0.32296 1.56121,1.10061 1.54176,2.02864 0.28023,1.12883 0.0579,1.83321 0.59644,2.20393 0.18167,0.76248 1.51313,0.86678 2.20233,0.79048 3.38926,-0.68211 6.7753,-1.38537 10.15155,-2.12588 0.97213,-0.14607 1.95742,-0.15972 2.93753,-0.21491 2.03734,-0.0551 4.07508,-0.2094 6.11309,-0.094 1.12877,0.0208 2.24704,0.18488 3.37053,0.27892 0.84638,0.15613 1.69845,0.59162 2.10978,1.37947 0.4109,0.8536 0.20614,1.81803 0.11345,2.71719 -0.20731,1.5099 -0.46496,3.0174 -0.88281,4.48544 -0.52995,1.92077 -1.0604,3.84526 -1.71992,5.72595 -0.54068,1.5552 -1.19601,3.06712 -1.96474,4.52326 -2.68244,5.29622 -5.60391,10.4673 -8.28581,15.76369 -0.58477,1.26046 -1.02721,2.58125 -1.50638,3.88419 -0.50246,1.37811 -0.80671,2.82316 -0.89599,4.2875 -0.0845,0.90508 -0.21794,1.8208 -0.0402,2.72365 0.22533,1.74691 0.67494,3.45565 1.16095,5.14617 0.68947,2.10143 1.50885,4.165 2.55022,6.11904 1.54387,2.98796 3.31509,5.85091 5.04254,8.73481 2.40608,3.79265 4.80939,7.58719 7.21308,11.38141 0.80839,1.41242 1.43948,2.91394 1.99739,4.44028 0.47401,1.17585 0.94066,2.35399 1.31771,3.56538 0.94471,2.8904 1.85611,5.79225 2.7436,8.70072 0.98367,3.3376 2.02369,6.66068 2.84025,10.04456 1.13528,4.41603 2.32829,8.82108 3.24998,13.28793 0.32026,1.77014 0.65719,3.53915 0.92863,5.31682 0.0818,0.78783 -0.13528,1.68056 -0.81291,2.15912 -0.75145,0.62787 -1.78482,0.66474 -2.71653,0.7397 -0.90135,0.0416 -1.8191,0.0848 -2.69379,0.31697 -0.84126,0.30008 -1.48358,1.00533 -1.97639,1.72841 -0.54801,0.7912 -0.83773,1.75179 -0.79362,2.71515 -0.003,0.76775 0.22802,1.52277 0.54097,2.21798 0.31228,0.6721 0.80902,1.25072 1.49134,1.56336 1.39253,0.69105 2.9703,0.88286 4.50517,0.96145 1.20726,0.032 2.41398,-0.0885 3.61926,-0.15277 3.48362,-0.26521 6.97108,-0.47683 10.4542,-0.74913 5.76404,0.55248 11.53559,1.30204 17.33807,1.13603 3.9151,-0.1918 7.83151,-0.36647 11.73925,-0.68067 4.61347,-0.35479 9.23743,-0.64561 13.82156,-1.29391 1.74313,-0.25413 3.45347,-0.67764 5.16626,-1.08194 1.45871,-0.45909 3.06191,-0.69962 4.27366,-1.70401 0.49116,-0.54815 0.95305,-1.17213 1.07895,-1.9146 0.20567,-0.80107 -0.21267,-1.57998 -0.6668,-2.21157 -0.53182,-0.72767 -1.09817,-1.4736 -1.25463,-2.38546 -0.35738,-1.73725 -0.48344,-3.51111 -0.73167,-5.26558 -0.34196,-2.58696 -0.59252,-5.18543 -1.00077,-7.76339 -0.23829,-1.48286 -0.37368,-2.98909 -0.7994,-4.43448 -0.47372,-2.13659 -1.20128,-4.20399 -1.92718,-6.26515 -0.64345,-1.3196 -1.31874,-2.62354 -1.93985,-3.95395 -0.95266,-1.78871 -1.84491,-3.61795 -3.00524,-5.28506 -1.1018,-1.62071 -2.37656,-3.11506 -3.57518,-4.66391 -1.51896,-1.89355 -3.03905,-3.79074 -4.73328,-5.5326 -0.73716,-0.79212 -1.45869,-1.60022 -2.2965,-2.28937 -2.61358,-2.27755 -5.32632,-4.43867 -8.02083,-6.61912 -2.82186,-2.24728 -5.63619,-4.51096 -8.29222,-6.95425 -1.62386,-1.69567 -2.90757,-3.69563 -3.88204,-5.82715 -0.74933,-1.47127 -1.25005,-3.04728 -1.79228,-4.60197 -1.0319,-3.08475 -1.84091,-6.24209 -2.43901,-9.43893 -0.35909,-1.88131 -0.49765,-3.79369 -0.69589,-5.69616 -0.492,-5.02535 -0.79886,-10.06622 -1.23099,-15.09676 -0.0446,-1.31719 -0.4448,-2.58316 -0.77384,-3.84907 -1.46325,-4.63778 -3.16378,-9.19708 -4.61337,-13.8391 -0.56443,-1.7886 -1.05587,-3.60013 -1.4047,-5.44394 -0.31985,-1.51147 -0.51317,-3.04574 -0.84016,-4.55613 -0.89712,-4.63716 -1.6623,-9.29884 -2.35981,-13.96993 -0.48147,-3.15211 -0.96293,-6.30422 -1.4444,-9.45634 -0.0677,-1.12431 -0.0196,-2.25063 0.1278,-3.36657 0.20646,-2.22786 0.45946,-4.45108 0.68405,-6.67686 0.10856,-1.16649 0.23237,-2.33798 0.11065,-3.50914 -0.20829,-1.91616 -0.46831,-3.82767 -0.76021,-5.73299 -0.30795,-1.46488 -0.50461,-2.9509 -0.87169,-4.40371 -0.2256,-1.06108 -0.60821,-2.08064 -0.83237,-3.14281 -0.35102,-1.19066 -0.67984,-2.39282 -1.21718,-3.51631 -0.13648,-0.24 -0.49985,-0.5146 -0.7844,-0.35163 z m -26.29112,33.56716 c 0.69481,0.223 0.78278,1.14813 0.51392,1.7311 -0.47001,0.72472 -1.16206,1.29353 -1.68179,1.98888 -0.93469,1.13241 -1.87211,2.26256 -2.80825,3.39377 -0.58797,0.61106 -1.86557,0.47171 -2.02864,-0.45982 -0.19098,-0.89745 0.22337,-1.77136 0.46956,-2.61588 0.35624,-1.12478 0.70581,-2.33966 1.59701,-3.1685 0.71633,-0.63532 1.70489,-0.69711 2.60823,-0.82832 0.43553,0.009 0.91081,-0.16406 1.32996,-0.0412 z m -8.98009,4.59824 c 0.18227,0.94872 0.33503,1.90349 0.4671,2.85931 0.262,0.67431 -0.41162,1.6202 -1.11626,1.06272 -0.77232,-0.69056 0.0464,-1.72696 0.14217,-2.54325 0.11598,-0.414 0.28287,-1.19695 0.50699,-1.37878 z"
       id="path4332-4-89-3-5"
       style="fill:#5c3566;fill-opacity:1" />
    <path
       d="m 231.55919,447.22351 c 0.15085,0.1013 0.13412,0.0867 0.31001,0.22945 0.52496,0.42597 0.1634,0.15716 0.83065,0.67934 0.66126,0.51751 0.87755,0.66477 1.60577,1.19574 1.60043,1.12101 3.29382,2.19775 5.20009,3.13991 1.22437,0.60513 1.62137,0.74325 2.91166,1.27176 1.10092,0.45236 2.28322,0.83162 3.47703,1.19917 0,0 -1.14908,0.55282 -1.14908,0.55282 l 0,0 c -1.13831,-0.40171 -2.26474,-0.81404 -3.32475,-1.28121 -0.46745,-0.20226 -0.94418,-0.39761 -1.40232,-0.60679 -2.47217,-1.12866 -4.67737,-2.43468 -6.80201,-3.78119 -1.67734,-1.06766 -0.31317,-0.19673 -1.76152,-1.12752 -0.31989,-0.20558 -0.63301,-0.41505 -0.96412,-0.61425 -0.18301,-0.11011 -0.20728,-0.11753 -0.37851,-0.19681 0,0 1.4471,-0.66042 1.4471,-0.66042 z"
       id="path5651"
       style="fill:#204a87;fill-opacity:1;stroke:none" />
    <path
       d="m 230.24339,448.39398 c 0.10213,0.1079 0.13038,0.14131 0.26696,0.26099 0.63123,0.55313 1.28195,1.09889 1.92305,1.64777 1.11767,0.94606 2.20861,1.90422 3.362,2.83435 0.81456,0.65687 0.97523,0.76616 1.82076,1.40039 1.41962,1.06064 3.01892,2.02648 4.64032,2.97606 0,0 -1.27495,0.58166 -1.27495,0.58166 l 0,0 c -1.46882,-1.03098 -3.03916,-2.00898 -4.44969,-3.06987 -1.80267,-1.37823 -3.48781,-2.81008 -5.26391,-4.2007 -0.80576,-0.60703 -1.60614,-1.21694 -2.49073,-1.78373 0,0 1.46619,-0.64692 1.46619,-0.64692 z"
       id="path5653"
       style="fill:#204a87;fill-opacity:1;stroke:none" />
    <path
       d="m 229.6665,450.01753 c -0.0998,0.43013 -0.0369,0.85809 0.0312,1.27762 0.11859,0.73039 0.1282,0.67842 0.34118,1.44692 0.57742,1.84152 1.52331,3.61616 2.82537,5.28321 0.29446,0.37701 0.62552,0.74199 0.93828,1.11298 1.41094,1.61982 3.17339,3.10283 5.016,4.54278 0,0 -1.24048,0.55199 -1.24048,0.55199 l 0,0 c -1.60231,-1.55002 -3.29338,-3.06725 -4.70913,-4.68891 -0.31352,-0.37191 -0.64131,-0.7391 -0.94057,-1.11574 -1.31423,-1.65407 -2.34439,-3.39489 -3.05207,-5.20507 -0.31711,-0.85744 -0.63824,-1.72094 -0.72661,-2.61293 0,0 1.5168,-0.59285 1.5168,-0.59285 z"
       id="path5655"
       style="fill:#204a87;fill-opacity:1;stroke:none" />
    <path
       d="m 237.08305,498.70575 c 0.68706,0.50982 0.54097,0.81145 0.54097,0.81145 0.21862,1.11851 1.09944,2.95638 1.70983,3.34193 0.63748,0.65737 1.7681,1.61256 2.84009,4.97692 2.81133,8.82313 4.04429,36.72133 2.29912,52.14948 -0.43941,3.88459 -0.80847,7.27262 -0.81146,7.54648 -0.003,0.27395 -0.16124,0.35271 -0.35163,0.16229 -0.19037,-0.19033 -1.00487,0.12836 -1.81224,0.70326 -0.80737,0.5749 -2.67094,1.4923 -4.13842,2.05568 -2.17061,0.83344 -2.8757,1.47992 -3.86793,3.40811 -1.18405,2.30098 -1.28766,2.36001 -3.59745,2.21798 -2.04997,-0.12603 -2.55438,0.0606 -3.59745,1.37951 -1.01217,1.27998 -1.15419,1.98255 -0.8926,4.21956 -0.26454,1.50182 0.11117,2.48777 2.69207,3.15148 5.25722,1.35181 18.34799,0.20435 20.27655,-0.46991 1.89254,-3.12559 1.13001,-7.10271 2.40285,-10.55263 0.23238,-0.45779 0.56324,-3.5118 0.75736,-6.78921 0.59754,-10.08869 2.94215,-23.16835 7.11376,-39.76123 0.88807,-3.53237 1.46581,-5.6098 1.89339,-6.70802 l 0,-22.47729 c -7.81892,0.21108 -15.63796,0.42328 -23.45681,0.63416 z"
       id="path6237-0"
       style="fill:#5c3566" />
  </g>
</svg>
